<mxfile host="app.diagrams.net" modified="2022-10-08T14:13:59.811Z" agent="5.0 (Windows NT 10.0; Win64; x64) AppleWebKit/537.36 (KHTML, like Gecko) Chrome/106.0.0.0 Safari/537.36" etag="WOwsKhHuJp2_SxIoPYtM" version="20.4.0" type="github">
  <diagram id="hzf8A09na_gyoyZHbocH" name="Page-1">
    <mxGraphModel dx="677" dy="374" grid="1" gridSize="10" guides="1" tooltips="1" connect="1" arrows="1" fold="1" page="1" pageScale="1" pageWidth="850" pageHeight="1100" math="0" shadow="0">
      <root>
        <mxCell id="0" />
        <mxCell id="1" parent="0" />
        <mxCell id="NrgGCvvX3-PHuIALQZmD-23" style="edgeStyle=orthogonalEdgeStyle;rounded=0;orthogonalLoop=1;jettySize=auto;html=1;" edge="1" parent="1" source="NrgGCvvX3-PHuIALQZmD-1" target="NrgGCvvX3-PHuIALQZmD-2">
          <mxGeometry relative="1" as="geometry">
            <Array as="points">
              <mxPoint x="120" y="225" />
            </Array>
          </mxGeometry>
        </mxCell>
        <mxCell id="NrgGCvvX3-PHuIALQZmD-24" style="edgeStyle=orthogonalEdgeStyle;rounded=0;orthogonalLoop=1;jettySize=auto;html=1;" edge="1" parent="1" source="NrgGCvvX3-PHuIALQZmD-1" target="NrgGCvvX3-PHuIALQZmD-3">
          <mxGeometry relative="1" as="geometry">
            <Array as="points">
              <mxPoint x="120" y="345" />
            </Array>
          </mxGeometry>
        </mxCell>
        <mxCell id="NrgGCvvX3-PHuIALQZmD-1" value="Khời Đầu" style="ellipse;whiteSpace=wrap;html=1;aspect=fixed;" vertex="1" parent="1">
          <mxGeometry x="80" y="250" width="80" height="80" as="geometry" />
        </mxCell>
        <mxCell id="NrgGCvvX3-PHuIALQZmD-12" style="edgeStyle=orthogonalEdgeStyle;rounded=0;orthogonalLoop=1;jettySize=auto;html=1;entryX=0;entryY=0.5;entryDx=0;entryDy=0;" edge="1" parent="1" source="NrgGCvvX3-PHuIALQZmD-2" target="NrgGCvvX3-PHuIALQZmD-4">
          <mxGeometry relative="1" as="geometry">
            <Array as="points">
              <mxPoint x="265" y="165" />
            </Array>
          </mxGeometry>
        </mxCell>
        <mxCell id="NrgGCvvX3-PHuIALQZmD-15" style="edgeStyle=orthogonalEdgeStyle;rounded=0;orthogonalLoop=1;jettySize=auto;html=1;" edge="1" parent="1" source="NrgGCvvX3-PHuIALQZmD-2" target="NrgGCvvX3-PHuIALQZmD-7">
          <mxGeometry relative="1" as="geometry">
            <Array as="points">
              <mxPoint x="265" y="275" />
            </Array>
          </mxGeometry>
        </mxCell>
        <mxCell id="NrgGCvvX3-PHuIALQZmD-2" value="A" style="ellipse;whiteSpace=wrap;html=1;aspect=fixed;" vertex="1" parent="1">
          <mxGeometry x="240" y="200" width="50" height="50" as="geometry" />
        </mxCell>
        <mxCell id="NrgGCvvX3-PHuIALQZmD-21" style="edgeStyle=orthogonalEdgeStyle;rounded=0;orthogonalLoop=1;jettySize=auto;html=1;" edge="1" parent="1" source="NrgGCvvX3-PHuIALQZmD-3">
          <mxGeometry relative="1" as="geometry">
            <mxPoint x="350" y="405" as="targetPoint" />
            <Array as="points">
              <mxPoint x="265" y="405" />
            </Array>
          </mxGeometry>
        </mxCell>
        <mxCell id="NrgGCvvX3-PHuIALQZmD-3" value="D" style="ellipse;whiteSpace=wrap;html=1;aspect=fixed;" vertex="1" parent="1">
          <mxGeometry x="240" y="320" width="50" height="50" as="geometry" />
        </mxCell>
        <mxCell id="NrgGCvvX3-PHuIALQZmD-13" style="edgeStyle=orthogonalEdgeStyle;rounded=0;orthogonalLoop=1;jettySize=auto;html=1;" edge="1" parent="1" source="NrgGCvvX3-PHuIALQZmD-4" target="NrgGCvvX3-PHuIALQZmD-5">
          <mxGeometry relative="1" as="geometry">
            <Array as="points">
              <mxPoint x="375" y="115" />
            </Array>
          </mxGeometry>
        </mxCell>
        <mxCell id="NrgGCvvX3-PHuIALQZmD-16" style="edgeStyle=orthogonalEdgeStyle;rounded=0;orthogonalLoop=1;jettySize=auto;html=1;entryX=0;entryY=0.5;entryDx=0;entryDy=0;" edge="1" parent="1" source="NrgGCvvX3-PHuIALQZmD-4" target="NrgGCvvX3-PHuIALQZmD-6">
          <mxGeometry relative="1" as="geometry">
            <Array as="points">
              <mxPoint x="375" y="205" />
            </Array>
          </mxGeometry>
        </mxCell>
        <mxCell id="NrgGCvvX3-PHuIALQZmD-4" value="B" style="ellipse;whiteSpace=wrap;html=1;aspect=fixed;" vertex="1" parent="1">
          <mxGeometry x="350" y="140" width="50" height="50" as="geometry" />
        </mxCell>
        <mxCell id="NrgGCvvX3-PHuIALQZmD-14" style="edgeStyle=orthogonalEdgeStyle;rounded=0;orthogonalLoop=1;jettySize=auto;html=1;entryX=0.5;entryY=0;entryDx=0;entryDy=0;" edge="1" parent="1" source="NrgGCvvX3-PHuIALQZmD-5" target="NrgGCvvX3-PHuIALQZmD-10">
          <mxGeometry relative="1" as="geometry" />
        </mxCell>
        <mxCell id="NrgGCvvX3-PHuIALQZmD-5" value="E" style="ellipse;whiteSpace=wrap;html=1;aspect=fixed;" vertex="1" parent="1">
          <mxGeometry x="450" y="90" width="50" height="50" as="geometry" />
        </mxCell>
        <mxCell id="NrgGCvvX3-PHuIALQZmD-6" value="G" style="ellipse;whiteSpace=wrap;html=1;aspect=fixed;" vertex="1" parent="1">
          <mxGeometry x="450" y="180" width="50" height="50" as="geometry" />
        </mxCell>
        <mxCell id="NrgGCvvX3-PHuIALQZmD-17" style="edgeStyle=orthogonalEdgeStyle;rounded=0;orthogonalLoop=1;jettySize=auto;html=1;entryX=0.5;entryY=1;entryDx=0;entryDy=0;" edge="1" parent="1" source="NrgGCvvX3-PHuIALQZmD-7" target="NrgGCvvX3-PHuIALQZmD-10">
          <mxGeometry relative="1" as="geometry">
            <Array as="points">
              <mxPoint x="585" y="275" />
            </Array>
          </mxGeometry>
        </mxCell>
        <mxCell id="NrgGCvvX3-PHuIALQZmD-7" value="C" style="ellipse;whiteSpace=wrap;html=1;aspect=fixed;" vertex="1" parent="1">
          <mxGeometry x="350" y="250" width="50" height="50" as="geometry" />
        </mxCell>
        <mxCell id="NrgGCvvX3-PHuIALQZmD-20" style="edgeStyle=orthogonalEdgeStyle;rounded=0;orthogonalLoop=1;jettySize=auto;html=1;entryX=0;entryY=0.5;entryDx=0;entryDy=0;" edge="1" parent="1" source="NrgGCvvX3-PHuIALQZmD-8" target="NrgGCvvX3-PHuIALQZmD-9">
          <mxGeometry relative="1" as="geometry" />
        </mxCell>
        <mxCell id="NrgGCvvX3-PHuIALQZmD-8" value="F" style="ellipse;whiteSpace=wrap;html=1;aspect=fixed;" vertex="1" parent="1">
          <mxGeometry x="350" y="380" width="50" height="50" as="geometry" />
        </mxCell>
        <mxCell id="NrgGCvvX3-PHuIALQZmD-19" style="edgeStyle=orthogonalEdgeStyle;rounded=0;orthogonalLoop=1;jettySize=auto;html=1;entryX=0.5;entryY=1;entryDx=0;entryDy=0;" edge="1" parent="1" source="NrgGCvvX3-PHuIALQZmD-9" target="NrgGCvvX3-PHuIALQZmD-11">
          <mxGeometry relative="1" as="geometry" />
        </mxCell>
        <mxCell id="NrgGCvvX3-PHuIALQZmD-9" value="I" style="ellipse;whiteSpace=wrap;html=1;aspect=fixed;" vertex="1" parent="1">
          <mxGeometry x="460" y="380" width="50" height="50" as="geometry" />
        </mxCell>
        <mxCell id="NrgGCvvX3-PHuIALQZmD-18" style="edgeStyle=orthogonalEdgeStyle;rounded=0;orthogonalLoop=1;jettySize=auto;html=1;" edge="1" parent="1" source="NrgGCvvX3-PHuIALQZmD-10" target="NrgGCvvX3-PHuIALQZmD-11">
          <mxGeometry relative="1" as="geometry" />
        </mxCell>
        <mxCell id="NrgGCvvX3-PHuIALQZmD-10" value="H" style="ellipse;whiteSpace=wrap;html=1;aspect=fixed;" vertex="1" parent="1">
          <mxGeometry x="560" y="140" width="50" height="50" as="geometry" />
        </mxCell>
        <mxCell id="NrgGCvvX3-PHuIALQZmD-11" value="J" style="ellipse;whiteSpace=wrap;html=1;aspect=fixed;" vertex="1" parent="1">
          <mxGeometry x="640" y="260" width="50" height="50" as="geometry" />
        </mxCell>
        <mxCell id="NrgGCvvX3-PHuIALQZmD-25" value="5" style="text;html=1;strokeColor=none;fillColor=none;align=center;verticalAlign=middle;whiteSpace=wrap;rounded=0;" vertex="1" parent="1">
          <mxGeometry x="280" y="210" width="60" height="30" as="geometry" />
        </mxCell>
        <mxCell id="NrgGCvvX3-PHuIALQZmD-26" value="2" style="text;html=1;strokeColor=none;fillColor=none;align=center;verticalAlign=middle;whiteSpace=wrap;rounded=0;" vertex="1" parent="1">
          <mxGeometry x="390" y="150" width="60" height="30" as="geometry" />
        </mxCell>
        <mxCell id="NrgGCvvX3-PHuIALQZmD-27" value="5" style="text;html=1;strokeColor=none;fillColor=none;align=center;verticalAlign=middle;whiteSpace=wrap;rounded=0;" vertex="1" parent="1">
          <mxGeometry x="445" y="140" width="60" height="30" as="geometry" />
        </mxCell>
        <mxCell id="NrgGCvvX3-PHuIALQZmD-28" value="7" style="text;html=1;strokeColor=none;fillColor=none;align=center;verticalAlign=middle;whiteSpace=wrap;rounded=0;" vertex="1" parent="1">
          <mxGeometry x="445" y="230" width="60" height="30" as="geometry" />
        </mxCell>
        <mxCell id="NrgGCvvX3-PHuIALQZmD-29" value="2" style="text;html=1;strokeColor=none;fillColor=none;align=center;verticalAlign=middle;whiteSpace=wrap;rounded=0;" vertex="1" parent="1">
          <mxGeometry x="520" y="150" width="60" height="30" as="geometry" />
        </mxCell>
        <mxCell id="NrgGCvvX3-PHuIALQZmD-30" value="6" style="text;html=1;strokeColor=none;fillColor=none;align=center;verticalAlign=middle;whiteSpace=wrap;rounded=0;" vertex="1" parent="1">
          <mxGeometry x="680" y="270" width="60" height="30" as="geometry" />
        </mxCell>
        <mxCell id="NrgGCvvX3-PHuIALQZmD-31" value="12" style="text;html=1;strokeColor=none;fillColor=none;align=center;verticalAlign=middle;whiteSpace=wrap;rounded=0;" vertex="1" parent="1">
          <mxGeometry x="345" y="300" width="60" height="30" as="geometry" />
        </mxCell>
        <mxCell id="NrgGCvvX3-PHuIALQZmD-32" value="10" style="text;html=1;strokeColor=none;fillColor=none;align=center;verticalAlign=middle;whiteSpace=wrap;rounded=0;" vertex="1" parent="1">
          <mxGeometry x="455" y="430" width="60" height="30" as="geometry" />
        </mxCell>
        <mxCell id="NrgGCvvX3-PHuIALQZmD-33" value="1" style="text;html=1;strokeColor=none;fillColor=none;align=center;verticalAlign=middle;whiteSpace=wrap;rounded=0;" vertex="1" parent="1">
          <mxGeometry x="345" y="430" width="60" height="30" as="geometry" />
        </mxCell>
        <mxCell id="NrgGCvvX3-PHuIALQZmD-34" value="3" style="text;html=1;strokeColor=none;fillColor=none;align=center;verticalAlign=middle;whiteSpace=wrap;rounded=0;" vertex="1" parent="1">
          <mxGeometry x="280" y="330" width="60" height="30" as="geometry" />
        </mxCell>
      </root>
    </mxGraphModel>
  </diagram>
</mxfile>
